<svg preserveAspectRatio="none" width="100%" height="100%" overflow="visible" style="display: block;" viewBox="0 0 3.17793 8.42861" fill="none" xmlns="http://www.w3.org/2000/svg">
<path id="Vector" fill-rule="evenodd" clip-rule="evenodd" d="M2.8845 0.173706C2.74919 0.200311 2.61419 0.228519 2.47855 0.253361C2.20435 0.303365 2.12303 0.373884 2.08989 0.63801C2.06047 0.872967 2.0346 1.11017 2.03396 1.34657C2.02927 3.07605 2.02749 4.80553 2.03444 6.53485C2.0359 6.90059 2.06742 7.26696 2.10299 7.63142C2.13839 7.99347 2.24704 8.0954 2.61403 8.16112C2.79785 8.19413 2.98263 8.22138 3.17793 8.25327C3.14657 8.41723 3.04488 8.43037 2.93235 8.42845C2.65574 8.42412 2.37913 8.41659 2.10251 8.41659C1.60101 8.41643 1.09919 8.42124 0.597695 8.42284C0.46545 8.42332 0.332549 8.42781 0.201436 8.41498C0.155359 8.4105 0.113977 8.36033 0 8.28372C0.157142 8.24878 0.239751 8.22619 0.323818 8.21272C0.691454 8.15423 0.760327 8.1148 0.813516 7.75836C0.876243 7.33668 0.928788 6.90924 0.932022 6.48404C0.945117 4.77844 0.939787 3.07284 0.934775 1.36724C0.933967 1.13084 0.905829 0.893321 0.873818 0.658524C0.839706 0.408983 0.707627 0.294069 0.450088 0.25288C0.355673 0.237814 0.261417 0.220024 0.168457 0.197266C0.13774 0.189733 0.111716 0.162808 0.0847168 0.145338C0.0955488 0.00157551 0.200469 -0.00259124 0.294561 0.000614204C0.569398 0.00974963 0.84407 0.041322 1.11858 0.0392385C1.59616 0.035392 2.07357 0.00910785 2.55098 0.000934028C2.66156 -0.000828916 2.77279 0.0329885 2.88369 0.050458C2.88385 0.0914873 2.88418 0.132517 2.8845 0.173706Z" fill="var(--fill-0, #006A9F)"/>
</svg>
