<svg preserveAspectRatio="none" width="100%" height="100%" overflow="visible" style="display: block;" viewBox="0 0 111.069 26.399" fill="none" xmlns="http://www.w3.org/2000/svg">
<path id="Vector" fill-rule="evenodd" clip-rule="evenodd" d="M51.2004 11.9273C51.3637 11.5147 51.5204 11.0992 51.6916 10.6898C52.1439 9.60794 52.6029 8.52891 53.0579 7.44814C53.0935 7.36331 53.1188 7.27421 53.1566 7.16485C51.922 6.21322 50.6963 5.26807 49.4168 4.28178C50.9013 4.18065 52.3243 4.0838 53.7619 3.98583C54.2867 2.64994 54.8088 1.32117 55.3279 0C55.7758 1.23476 56.222 2.46573 56.669 3.69732C58.1137 3.93899 59.5321 4.17622 61.0163 4.42454C59.8735 5.3692 58.7877 6.26671 57.6866 7.17672C58.0805 8.43712 58.4733 9.69498 58.866 10.9527C58.8445 10.9684 58.8228 10.9839 58.8012 10.9994C57.7628 10.2226 56.7244 9.44588 55.6558 8.64666C55.5596 8.71328 55.454 8.78134 55.354 8.85651C54.0297 9.85293 52.7065 10.8508 51.3813 11.8459C51.3297 11.8847 51.2605 11.9001 51.1996 11.9263L51.2004 11.9273ZM85.2431 17.8454C85.2749 17.9607 85.3155 18.0582 85.3274 18.1592C85.4334 19.0526 85.5297 19.9472 85.638 20.8405C85.7675 21.9098 85.9063 22.9781 86.0407 24.0468C86.0924 24.4581 86.1214 24.8737 86.1987 25.28C86.3301 25.9703 86.5605 26.0895 87.0973 26.1399C87.2482 26.154 87.3971 26.1854 87.547 26.2088C87.5762 26.3886 87.4734 26.399 87.3611 26.3966C87.0058 26.3888 86.6507 26.3834 86.2956 26.3709C85.9888 26.3601 85.6818 26.3468 85.3758 26.3229C85.228 26.3114 85.0823 26.2727 84.8854 26.2371C84.9597 26.1426 85.0084 26.0978 85.0355 26.0421C85.0753 25.9606 85.1324 25.8682 85.1249 25.7859C85.0601 25.0664 84.9842 24.3479 84.9085 23.6293C84.8523 23.0995 84.7882 22.5705 84.7332 22.0405C84.6732 21.4632 84.6197 20.8848 84.5574 20.2427C84.4785 20.3839 84.4217 20.4758 84.3744 20.5723C83.4823 22.3885 82.5924 24.2059 81.6973 26.0206C81.6384 26.1401 81.6231 26.3191 81.4484 26.3358C81.2432 26.3556 81.2146 26.152 81.146 26.0311C80.9247 25.6401 80.7237 25.2371 80.5205 24.8359C79.8423 23.495 79.1669 22.1528 78.4889 20.8119C78.4391 20.7133 78.3782 20.6205 78.2795 20.4515C78.2363 20.8041 78.1981 21.0677 78.1729 21.3323C78.1157 21.9341 78.0668 22.5367 78.0113 23.1387C77.943 23.8817 77.8703 24.6245 77.8032 25.3676C77.7916 25.4973 77.7906 25.6293 77.7983 25.7593C77.8124 26.0024 77.9002 26.0949 78.1389 26.1348C78.2867 26.1597 78.435 26.1816 78.6415 26.2139C78.5639 26.3017 78.5311 26.374 78.4853 26.3835C78.3826 26.4049 78.2735 26.3973 78.1671 26.3974C77.5636 26.398 76.9601 26.399 76.3564 26.3965C76.2482 26.396 76.1043 26.4352 76.1117 26.2234C76.2276 26.201 76.3401 26.1658 76.454 26.1603C76.6937 26.1492 76.828 26.0078 76.8831 25.7998C76.9491 25.5493 76.9964 25.2922 77.0279 25.035C77.1575 23.9768 77.2743 22.9172 77.403 21.859C77.5101 20.9777 77.6286 20.0979 77.7387 19.2169C77.7741 18.9348 77.7984 18.6515 77.8285 18.3686C77.8479 18.1845 77.8566 17.9965 78.0302 17.8114C78.1208 17.9408 78.2046 18.0352 78.2608 18.144C78.8048 19.1947 79.3427 20.2486 79.8852 21.2999C80.4445 22.3834 81.0068 23.4652 81.5683 24.5473C81.5947 24.598 81.6284 24.6451 81.6791 24.7268C81.7487 24.6018 81.8069 24.5069 81.8561 24.4075C82.4704 23.1667 83.0853 21.926 83.6958 20.6832C84.1135 19.8338 84.5232 18.9805 84.9402 18.1306C84.9941 18.0205 85.0191 17.8747 85.2431 17.8454ZM10.2935 18.1309C10.1309 18.1644 9.99588 18.1988 9.8588 18.219C9.65846 18.2484 9.53304 18.3485 9.50204 18.5551C9.48447 18.6722 9.44788 18.7886 9.44724 18.9055C9.44245 19.7164 9.44485 20.5273 9.44613 21.3382C9.44613 21.3713 9.45907 21.4045 9.46945 21.4535C11.0513 21.4535 12.6277 21.4535 14.2283 21.4535C14.2375 21.3841 14.2542 21.3175 14.2538 21.2511C14.2522 20.488 14.2482 19.7248 14.2441 18.9619C14.2438 18.8903 14.2447 18.8181 14.235 18.7476C14.1879 18.4047 14.0525 18.2726 13.7087 18.2255C13.5798 18.2079 13.4507 18.1914 13.323 18.1668C13.2954 18.1616 13.274 18.1243 13.2045 18.0599C13.3187 18.0238 13.398 17.9764 13.4767 17.9773C13.8563 17.9826 14.2356 18.0081 14.6152 18.0119C14.8752 18.0145 15.1353 17.9916 15.3955 17.9836C15.5975 17.9773 15.7999 17.9696 16.0015 17.977C16.0742 17.9797 16.1452 18.0244 16.2421 18.0588C16.136 18.2212 15.9985 18.2025 15.8759 18.2198C15.5144 18.2704 15.4134 18.3777 15.38 18.7497C15.3748 18.809 15.373 18.8687 15.373 18.9283C15.3752 20.9674 15.3759 23.0066 15.3834 25.0458C15.3843 25.2706 15.4153 25.4967 15.4498 25.7198C15.4917 25.9902 15.6222 26.0984 15.9009 26.134C16.0942 26.1585 16.2987 26.1394 16.5252 26.2884C16.4238 26.3366 16.362 26.3899 16.2985 26.3916C16.0613 26.3985 15.8232 26.3851 15.5855 26.3857C14.9913 26.3875 14.3971 26.3953 13.803 26.3944C13.6718 26.3942 13.5178 26.4413 13.3943 26.2397C13.5076 26.2171 13.5906 26.1988 13.6745 26.1843C14.0249 26.1236 14.1398 26.0129 14.172 25.6458C14.2105 25.2078 14.2431 24.7684 14.2521 24.3288C14.2652 23.6731 14.2554 23.0172 14.2554 22.3612C14.2554 22.2437 14.2554 22.1263 14.2554 21.9873C12.6523 21.9873 11.0753 21.9873 9.47409 21.9873C9.46546 22.0401 9.44517 22.1061 9.44517 22.1719C9.44581 23.0902 9.44469 24.0083 9.45475 24.9265C9.45763 25.1753 9.48463 25.4253 9.5217 25.6716C9.57106 25.9982 9.68514 26.0955 10.0088 26.1357C10.1924 26.1585 10.3758 26.1841 10.5742 26.2105C10.544 26.3671 10.4659 26.3989 10.3632 26.3973C10.1255 26.3936 9.88756 26.3851 9.64983 26.3856C9.03185 26.387 8.41387 26.3937 7.79589 26.3944C7.68837 26.3945 7.55033 26.4379 7.50927 26.2352C7.61104 26.2064 7.70594 26.1748 7.80308 26.153C8.11718 26.083 8.20569 26.0041 8.24468 25.6883C8.28382 25.3701 8.32264 25.0493 8.32328 24.7293C8.32696 22.8096 8.32105 20.8896 8.31354 18.9699C8.3129 18.8295 8.28829 18.6855 8.25091 18.5498C8.19962 18.3628 8.07053 18.2504 7.87098 18.2243C7.68869 18.2004 7.50751 18.1682 7.30924 18.137C7.35701 17.9853 7.44456 17.9717 7.54218 17.9736C7.81554 17.9791 8.08891 17.9893 8.36227 17.9884C8.89493 17.9866 9.42759 17.9775 9.9601 17.9741C10.0731 17.9735 10.2037 17.9338 10.2935 18.1309ZM19.6839 21.7587C19.6657 22.4695 19.7867 23.135 20.0468 23.7702C20.3137 24.4222 20.7141 24.9737 21.3165 25.3694C21.9934 25.8141 22.7391 25.9921 23.5331 25.9065C24.3596 25.8174 25.0569 25.4665 25.561 24.7742C26.1376 23.9823 26.2435 23.0647 26.2519 22.1385C26.2571 21.559 26.1499 20.9777 25.9271 20.4275C25.5784 19.5669 25.0231 18.8973 24.1612 18.5123C23.5674 18.2471 22.9479 18.1823 22.3018 18.2911C21.1796 18.4799 20.3786 19.0615 19.9597 20.1301C19.7516 20.6608 19.6643 21.2126 19.6839 21.7587ZM27.488 21.6144C27.4837 23.1063 27.114 24.1505 26.289 25.0197C25.594 25.7523 24.7347 26.1695 23.7411 26.331C22.9742 26.4555 22.2207 26.407 21.4715 26.2028C20.1909 25.854 19.2956 25.0557 18.7977 23.8507C18.1615 22.3108 18.3601 20.8431 19.3567 19.5059C20.0479 18.5783 20.9968 18.0541 22.1414 17.8782C22.9914 17.7475 23.8249 17.8091 24.6498 18.0583C26.4383 18.5988 27.5289 20.1003 27.488 21.6144ZM104.368 22.2509C104.844 22.4112 105.319 22.4596 105.814 22.4141C106.381 22.3622 106.709 22.0415 106.879 21.524C107.106 20.8318 107.071 20.1427 106.807 19.4675C106.756 19.3367 106.678 19.2138 106.597 19.0982C106.132 18.4317 105.214 18.2589 104.368 18.5203C104.368 19.742 104.368 20.9687 104.368 22.2509ZM102.329 18.0262C102.414 18.0067 102.499 17.9689 102.583 17.9705C102.958 17.978 103.332 18.0048 103.706 18.0093C103.975 18.0123 104.244 17.9796 104.512 17.9833C105.062 17.991 105.615 17.9809 106.161 18.0363C106.768 18.0982 107.324 18.3211 107.704 18.8479C108.174 19.4999 108.206 20.2159 107.939 20.9506C107.771 21.4124 107.51 21.8234 107.154 22.1642C107.027 22.2856 106.898 22.4038 106.757 22.536C106.979 22.8168 107.174 23.0675 107.373 23.3138C108 24.0855 108.608 24.8735 109.324 25.5649C109.684 25.9121 110.097 26.1359 110.606 26.1513C110.731 26.1551 110.854 26.1876 111.069 26.2208C110.95 26.3107 110.896 26.3868 110.844 26.3859C110.247 26.3764 109.648 26.3766 109.054 26.3303C108.628 26.2971 108.288 26.0529 108.019 25.7208C107.647 25.2612 107.282 24.7957 106.918 24.3291C106.591 23.909 106.262 23.4898 105.951 23.0579C105.847 22.9138 105.731 22.8596 105.568 22.8606C105.181 22.863 104.794 22.8614 104.387 22.8614C104.375 22.9484 104.354 23.0271 104.354 23.1056C104.354 23.7141 104.352 24.3228 104.364 24.9312C104.369 25.1802 104.395 25.4302 104.431 25.677C104.478 25.9955 104.595 26.0956 104.917 26.1375C105.095 26.1607 105.285 26.14 105.491 26.2884C105.388 26.3354 105.325 26.388 105.26 26.3899C105.026 26.3969 104.791 26.3835 104.557 26.3841C103.982 26.3857 103.408 26.3936 102.833 26.392C102.717 26.3916 102.572 26.4492 102.479 26.2412C102.613 26.2107 102.73 26.1831 102.847 26.1578C103.145 26.0931 103.217 26.0488 103.243 25.748C103.287 25.2269 103.316 24.7026 103.318 24.1794C103.324 22.4971 103.315 20.8147 103.309 19.1322C103.308 18.9787 103.283 18.8252 103.269 18.6718C103.242 18.3864 103.062 18.2615 102.807 18.2144C102.651 18.1857 102.494 18.1583 102.338 18.1303C102.335 18.0956 102.332 18.061 102.329 18.0262ZM62.0882 18.4953C62.0753 18.552 62.0565 18.5967 62.0565 18.6414C62.0541 19.7737 62.0564 20.906 62.0505 22.0382C62.0497 22.2184 62.1298 22.2962 62.2941 22.324C62.7351 22.3983 63.1717 22.4755 63.6261 22.4112C64.0684 22.3486 64.3762 22.1254 64.5451 21.725C64.854 20.9913 64.8486 20.2439 64.5655 19.5043C64.3923 19.0522 64.0811 18.7194 63.6214 18.5472C63.1192 18.359 62.6095 18.3859 62.0882 18.4953ZM63.1725 26.2665C63.1337 26.3959 63.0259 26.3954 62.9198 26.3943C62.6943 26.3916 62.469 26.3836 62.2436 26.3842C61.6748 26.386 61.1058 26.3945 60.5367 26.3922C60.4212 26.3917 60.272 26.4489 60.1846 26.2402C60.3056 26.2119 60.4108 26.1837 60.5172 26.1627C60.8437 26.0983 60.943 26.008 60.978 25.675C61.0067 25.4031 61.0163 25.1277 61.0159 24.854C61.0142 22.8856 61.0076 20.9176 61.0018 18.9494C61.0014 18.8661 60.9992 18.7818 60.9869 18.6997C60.946 18.4288 60.8042 18.2826 60.5327 18.2233C60.4516 18.2056 60.3706 18.1865 60.2887 18.1743C60.2206 18.1644 60.1509 18.1638 60.0776 18.1586C60.0338 18.0153 60.0907 17.9696 60.2085 17.9712C60.5523 17.976 60.8961 17.9845 61.24 17.9858C61.605 17.9873 61.97 17.9863 62.3349 17.9788C62.9746 17.9655 63.613 17.948 64.2432 18.1019C65.1529 18.3244 65.7055 18.9117 65.8467 19.8355C65.9174 20.2982 65.7952 20.7323 65.6123 21.15C65.3738 21.6947 64.9853 22.1247 64.5319 22.5272C64.6015 22.7574 64.7951 22.9082 64.9442 23.0839C65.6277 23.89 66.3127 24.6951 67.0155 25.4843C67.3826 25.8967 67.8461 26.1462 68.4174 26.1528C68.5415 26.1542 68.6652 26.1893 68.8022 26.2803C68.741 26.3173 68.6798 26.3863 68.6183 26.3864C68.0726 26.3887 67.5261 26.3972 66.9819 26.3671C66.4115 26.3355 65.9843 26.0163 65.6416 25.581C65.0173 24.7874 64.3928 23.9938 63.7878 23.1855C63.6128 22.9518 63.4303 22.8349 63.1368 22.8559C62.8415 22.8773 62.5436 22.8557 62.2471 22.8624C62.0423 22.8671 61.9552 22.9878 61.985 23.1872C62.0127 23.3717 62.0419 23.557 62.0506 23.743C62.0775 24.3018 62.0933 24.8611 62.1177 25.4202C62.1218 25.5142 62.1426 25.6084 62.1634 25.7008C62.2343 26.0102 62.3298 26.0951 62.6362 26.1355C62.7998 26.1569 62.9631 26.1814 63.1258 26.2085C63.1422 26.2112 63.1538 26.2423 63.1725 26.2665ZM31.9297 18.4932C31.9076 18.5375 31.8882 18.5583 31.888 18.5793C31.8842 19.7462 31.8831 20.9133 31.8779 22.0804C31.8773 22.2268 31.9416 22.2966 32.0815 22.3201C32.5489 22.3989 33.0115 22.4916 33.4928 22.4061C33.8594 22.3408 34.1478 22.1784 34.3113 21.8466C34.7272 21.0032 34.7094 20.148 34.3041 19.3103C34.2044 19.1044 34.0353 18.907 33.8498 18.772C33.2602 18.3433 32.596 18.35 31.9297 18.4932ZM34.3562 22.5715C34.7214 23.022 35.0712 23.4731 35.4423 23.906C35.8761 24.4122 36.3217 24.9087 36.775 25.3975C37.1925 25.8471 37.6814 26.166 38.3305 26.1535C38.4211 26.1517 38.5125 26.1897 38.5967 26.2079C38.6379 26.3284 38.5931 26.3895 38.4894 26.3881C37.8348 26.379 37.176 26.452 36.5278 26.3112C36.2431 26.2494 35.9892 26.1066 35.7945 25.8918C35.4914 25.557 35.1995 25.2114 34.9183 24.858C34.4367 24.2528 33.9665 23.6389 33.4937 23.027C33.4158 22.9258 33.3241 22.8643 33.1933 22.8644C32.7667 22.8654 32.34 22.8649 31.9025 22.8649C31.8927 22.9445 31.8784 23.0021 31.8797 23.0596C31.8994 23.8685 31.9198 24.6773 31.9446 25.4862C31.9475 25.5796 31.9753 25.6728 31.9958 25.7652C32.0463 25.9921 32.196 26.1054 32.4212 26.1325C32.6151 26.1556 32.8086 26.1814 33.0165 26.2079C32.9633 26.3918 32.8562 26.3939 32.7488 26.3924C32.5221 26.3897 32.2954 26.382 32.0689 26.3826C31.4847 26.3846 30.9005 26.3919 30.3165 26.3918C30.2019 26.3918 30.0515 26.4369 30.0034 26.2251C30.1147 26.2046 30.2038 26.1881 30.2929 26.1717C30.6644 26.1027 30.7231 26.0502 30.7872 25.6737C30.813 25.5219 30.8194 25.3655 30.8196 25.2111C30.8215 23.1371 30.821 21.0632 30.8202 18.9893C30.8202 18.8941 30.8173 18.7977 30.8039 18.7039C30.7635 18.4232 30.6349 18.2859 30.354 18.2256C30.1942 18.191 30.0319 18.1674 29.8768 18.1401C29.8513 17.9764 29.9457 17.9687 30.0493 17.9706C30.3591 17.9762 30.669 17.9847 30.9791 17.9858C31.3704 17.9875 31.7617 17.9756 32.1529 17.9828C32.6761 17.9923 33.2015 17.9902 33.7219 18.0382C34.2126 18.0835 34.6794 18.2398 35.0493 18.5886C35.6602 19.1648 35.824 19.8699 35.6233 20.6734C35.4589 21.3319 35.0783 21.8535 34.5936 22.3102C34.5329 22.3672 34.4683 22.4202 34.408 22.4777C34.3918 22.4932 34.3849 22.5184 34.3562 22.5715ZM54.2069 21.6592C54.3026 21.4865 54.463 21.5522 54.5916 21.5464C55.0084 21.5278 55.4095 21.454 55.7713 21.2367C56.4327 20.8394 56.7452 20.2269 56.7889 19.4728C56.832 18.732 56.6088 18.0684 56.1226 17.5085C55.7844 17.1195 55.3388 16.9063 54.8338 16.8461C54.5665 16.8142 54.2919 16.8265 54.0221 16.8427C53.752 16.859 53.6865 16.9452 53.673 17.2278C53.67 17.2871 53.6715 17.3465 53.6715 17.4058C53.6745 19.7077 53.6749 22.0094 53.6835 24.3113C53.6849 24.6536 53.7144 24.9967 53.7506 25.3374C53.797 25.7734 53.9756 25.9355 54.4059 25.9767C54.5787 25.9933 54.7508 26.019 54.9362 26.0422C54.9142 26.2076 54.8211 26.2361 54.7097 26.2353C54.4622 26.2334 54.2148 26.2251 53.9673 26.2258C53.3195 26.2275 52.6716 26.2345 52.0238 26.2347C51.8925 26.2347 51.7371 26.2818 51.6443 26.0954C51.7551 26.0054 51.8835 26.0022 52.0043 25.9829C52.3283 25.9313 52.4341 25.8482 52.4764 25.5171C52.5258 25.1309 52.5655 24.7405 52.5687 24.3518C52.5862 22.2175 52.5932 20.083 52.5978 17.9488C52.5984 17.6895 52.5734 17.4289 52.5413 17.1714C52.4996 16.8394 52.2652 16.6592 51.8632 16.6256C51.6077 16.6044 51.6077 16.6044 51.4825 16.5255C51.5062 16.3679 51.6487 16.3954 51.7344 16.3944C52.7336 16.3842 53.7335 16.3695 54.7325 16.3917C55.1988 16.402 55.6679 16.424 56.128 16.5571C57.1784 16.8607 57.718 17.5372 57.8247 18.6174C57.9527 19.9132 57.1674 21.1107 55.9549 21.5641C55.54 21.7193 55.1133 21.7687 54.6818 21.8064C54.5111 21.8213 54.3291 21.8308 54.2069 21.6592ZM0.091179 23.9786C0.238721 23.9342 0.276776 23.9858 0.284999 24.0892C0.297899 24.2531 0.308058 24.4182 0.338372 24.5794C0.440604 25.1222 0.762616 25.4953 1.28135 25.694C1.92167 25.9393 2.56456 25.9644 3.1952 25.6583C3.88454 25.3233 4.18817 24.5603 4.0969 23.8788C4.00048 23.1586 3.54189 22.6674 3.02477 22.216C2.45104 21.7152 1.84249 21.2509 1.29167 20.7276C0.536385 20.0102 0.142456 19.1436 0.3574 18.0814C0.543319 17.1628 1.13736 16.6252 2.021 16.3659C2.72726 16.1586 3.44046 16.1978 4.15382 16.3335C4.3757 16.3759 4.59774 16.4167 4.853 16.4643C4.83784 16.9965 4.82462 17.5343 4.80365 18.072C4.80172 18.119 4.74915 18.1642 4.71561 18.2174C4.57388 18.1564 4.57339 18.0473 4.56211 17.9443C4.49099 17.2981 4.20075 16.94 3.34146 16.7721C2.93302 16.6921 2.53457 16.6936 2.13871 16.8351C1.56225 17.0411 1.24056 17.4941 1.20718 18.0923C1.1767 18.6388 1.36101 19.1014 1.75461 19.46C2.23723 19.8997 2.75693 20.3001 3.2639 20.7134C3.7636 21.1208 4.24944 21.5418 4.61016 22.0797C5.29498 23.1005 5.23161 24.4218 4.46519 25.3814C4.03047 25.9256 3.42095 26.2116 2.74581 26.3255C1.92102 26.4644 1.10414 26.4171 0.314508 26.0927C0.0910177 26.001 -0.00960108 25.8852 0.000718796 25.6478C0.0174886 25.2585 0.00910365 24.868 0.024261 24.4786C0.0310334 24.3061 0.0694105 24.1349 0.091179 23.9786ZM94.8612 17.9251C94.9448 17.9048 95.0282 17.8683 95.1121 17.8671C95.3682 17.8637 95.6243 17.8752 95.8804 17.8788C96.753 17.8916 97.6258 17.9151 98.4985 17.9103C98.876 17.9084 99.2533 17.8477 99.6569 17.8114C99.6059 18.3077 99.5561 18.8044 99.4987 19.3003C99.4966 19.3194 99.4242 19.3302 99.3641 19.3522C99.3232 19.1743 99.2865 19.0157 99.2505 18.8571C99.1974 18.6215 99.0595 18.4866 98.8159 18.4721C98.4681 18.4516 98.1208 18.4224 97.7728 18.4091C97.5078 18.3987 97.2421 18.407 96.9557 18.407C96.9557 19.4505 96.9557 20.4745 96.9557 21.5248C97.059 21.5307 97.1602 21.5441 97.2609 21.5409C97.7254 21.5263 98.1899 21.4959 98.6543 21.4935C98.947 21.4919 99.1991 21.4176 99.4228 21.1567C99.5356 21.4921 99.4127 21.773 99.3924 22.0535C99.3717 22.3367 99.4343 22.6368 99.2453 22.9673C99.1951 22.8476 99.1517 22.7851 99.1434 22.7183C99.0806 22.2122 98.9933 22.0875 98.5066 22.0547C97.9989 22.0205 97.4876 22.0471 96.972 22.0471C96.9602 22.0824 96.9405 22.1144 96.9404 22.1464C96.9371 23.058 96.935 23.9695 96.935 24.8811C96.935 24.9637 96.9416 25.0475 96.9573 25.1283C97.0264 25.485 97.1817 25.6337 97.5415 25.6789C98.0158 25.7383 98.4895 25.7537 98.9658 25.6832C99.3132 25.6318 99.5445 25.464 99.6334 25.1081C99.675 24.9409 99.7326 24.7779 99.791 24.5876C99.9743 24.6781 99.9499 24.8178 99.9375 24.9347C99.9015 25.2748 99.8567 25.6142 99.806 25.9524C99.7765 26.1514 99.6851 26.231 99.4696 26.2354C99.0852 26.2435 98.7005 26.2386 98.316 26.2376C97.3261 26.2353 96.3363 26.2333 95.3466 26.2268C95.2358 26.2262 95.0763 26.2893 95.06 26.0606C95.1733 26.0296 95.281 25.9907 95.3919 25.9715C95.5763 25.9394 95.6887 25.8336 95.7176 25.6508C95.7619 25.3724 95.825 25.0922 95.8267 24.8124C95.8391 22.9054 95.8387 20.9982 95.8378 19.0911C95.8377 18.9153 95.8147 18.7378 95.7855 18.564C95.7369 18.2753 95.6181 18.165 95.3306 18.1165C95.1758 18.0906 95.0209 18.0666 94.8661 18.0418C94.8644 18.0029 94.8628 17.9641 94.8612 17.9251ZM38.9297 17.9846C39.029 17.8254 39.1594 17.8781 39.2675 17.8799C40.005 17.8921 40.7424 17.922 41.4798 17.9263C42.0411 17.9296 42.6029 17.909 43.1641 17.8881C43.3366 17.8818 43.5081 17.8402 43.7024 17.8114C43.8171 18.0672 43.6499 18.3211 43.6471 18.5815C43.6444 18.8396 43.6965 19.1184 43.5139 19.4008C43.4605 19.3191 43.4128 19.2727 43.398 19.2174C43.3711 19.1162 43.3727 19.0071 43.3457 18.9057C43.279 18.6546 43.1356 18.4919 42.8558 18.48C42.2498 18.4541 41.6441 18.4207 41.0165 18.3894C41.0058 18.5181 40.9919 18.6087 40.9916 18.6996C40.9899 19.4332 40.9929 20.1668 40.9888 20.9006C40.988 21.0269 40.9702 21.1551 40.9444 21.2791C40.9143 21.4233 40.9837 21.5018 41.1012 21.5417C41.1651 21.5635 41.2407 21.5546 41.3107 21.5517C41.6957 21.5361 42.0807 21.5183 42.4655 21.5005C43.0894 21.4718 43.0894 21.4715 43.5296 21.1945C43.5471 21.2641 43.5799 21.3262 43.5747 21.3852C43.5361 21.831 43.4898 22.2761 43.4465 22.7216C43.4371 22.8197 43.438 22.8197 43.2774 22.9053C43.2484 22.7539 43.2217 22.6074 43.1922 22.4615C43.1499 22.2518 43.0238 22.1252 42.8115 22.1066C42.4743 22.0768 42.1364 22.0503 41.7982 22.0352C41.5428 22.0239 41.2865 22.0332 40.9862 22.0332C40.9862 22.4407 40.9866 22.8275 40.9861 23.2142C40.9855 23.6993 40.9839 24.1844 40.9836 24.6695C40.9836 24.7405 40.9825 24.8122 40.9924 24.8822C41.0683 25.4177 41.0925 25.6529 41.7853 25.6969C42.1913 25.7225 42.6021 25.7117 43.0085 25.6847C43.4416 25.6556 43.6205 25.4794 43.7408 25.0529C43.7831 24.9024 43.8381 24.7555 43.8872 24.6069C43.9122 24.6093 43.937 24.6118 43.9618 24.614C43.9803 24.6735 44.0195 24.7348 44.0138 24.7917C43.976 25.1665 43.9422 25.5426 43.8803 25.9138C43.8323 26.2012 43.7723 26.2411 43.4782 26.24C42.6459 26.2373 41.8136 26.2241 40.9812 26.2209C40.4778 26.2188 39.9742 26.2303 39.4706 26.2301C39.3406 26.2301 39.1861 26.2837 39.081 26.0758C39.2008 26.0417 39.3044 26.0026 39.4114 25.9829C39.6349 25.9422 39.7707 25.8143 39.8008 25.5895C39.8351 25.333 39.877 25.0747 39.8778 24.8171C39.8843 22.8298 39.8816 20.8424 39.8811 18.8553C39.8811 18.7962 39.8765 18.7369 39.8712 18.6781C39.8397 18.3295 39.692 18.1819 39.3477 18.1223C39.2105 18.0987 39.0367 18.17 38.9297 17.9846ZM74.0411 24.5703C74.0411 24.8005 74.0535 24.9643 74.0381 25.1256C74.0124 25.3949 73.9811 25.6651 73.9298 25.9302C73.8764 26.2058 73.8316 26.2388 73.5506 26.2398C72.8827 26.2415 72.2145 26.2334 71.5465 26.2318C70.8678 26.2302 70.1887 26.2301 69.51 26.2326C69.3024 26.2334 69.3024 26.2385 69.118 26.0829C69.2317 26.0464 69.3233 26.0021 69.419 25.9891C69.6776 25.9538 69.8125 25.8044 69.8506 25.553C69.87 25.4253 69.9038 25.2977 69.9049 25.1699C69.917 23.6809 69.9266 22.1918 69.9315 20.7027C69.9334 20.0645 69.9306 19.4261 69.9148 18.7884C69.9026 18.2923 69.7757 18.1695 69.2909 18.1202C69.1812 18.1089 69.0513 18.1473 68.9611 17.9721C69.0263 17.9413 69.0873 17.8881 69.1492 17.8873C69.4302 17.8833 69.7113 17.899 69.9923 17.8987C71.0916 17.8973 72.1909 17.8952 73.2901 17.8857C73.4377 17.8844 73.5849 17.8393 73.7511 17.8114C73.8232 17.9998 73.7303 18.1718 73.7083 18.3494C73.6864 18.5247 73.7026 18.705 73.6779 18.8797C73.6546 19.0459 73.7562 19.2618 73.5018 19.3824C73.4739 19.3058 73.4464 19.2465 73.4311 19.1843C73.4009 19.0592 73.3878 18.9289 73.3485 18.8071C73.2898 18.6249 73.166 18.5079 72.9665 18.4936C72.6521 18.4709 72.3379 18.4402 72.023 18.4291C71.7077 18.418 71.3918 18.4267 71.0781 18.4267C71.0143 18.6804 70.9989 21.0872 71.0612 21.5307C71.1541 21.5388 71.255 21.5579 71.3551 21.5547C71.8223 21.5403 72.2891 21.5096 72.7562 21.505C73.0578 21.502 73.3282 21.4471 73.5504 21.1573C73.5841 21.2539 73.6203 21.3048 73.6153 21.3513C73.5588 21.8632 73.4968 22.3744 73.4313 22.8851C73.43 22.8951 73.3699 22.8975 73.3027 22.9098C73.2915 22.7992 73.2865 22.6981 73.2704 22.5988C73.2178 22.2734 73.1078 22.1329 72.7771 22.1035C72.2093 22.0532 71.6381 22.0415 71.0518 22.0127C71.0408 22.1367 71.0277 22.2159 71.0275 22.2953C71.0258 23.0991 71.0222 23.9029 71.0283 24.7066C71.0302 24.9524 71.0332 25.2013 71.1443 25.433C71.2233 25.5979 71.3408 25.6484 71.524 25.6679C72.0367 25.7227 72.5451 25.7668 73.0598 25.6903C73.4697 25.6292 73.6527 25.4766 73.7758 25.0777C73.8245 24.9205 73.8013 24.7244 74.0411 24.5703Z" fill="var(--fill-0, #006A9F)"/>
</svg>
