<svg preserveAspectRatio="none" width="100%" height="100%" overflow="visible" style="display: block;" viewBox="0 0 45.6033 3.6577" fill="none" xmlns="http://www.w3.org/2000/svg">
<path id="Vector" fill-rule="evenodd" clip-rule="evenodd" d="M44.3983 2.26068C44.2381 1.90668 44.0935 1.5869 43.917 1.19681C43.7333 1.59549 43.5852 1.91684 43.4269 2.26068C43.7541 2.26068 44.0544 2.26068 44.3983 2.26068ZM45.6033 3.63105C45.396 3.63105 45.2245 3.63105 45.0084 3.63105C44.8891 3.38094 44.7568 3.10349 44.6227 2.8223C44.1379 2.8223 43.6711 2.8223 43.1801 2.8223C43.0966 3.00367 42.9972 3.18692 42.9268 3.38047C42.8531 3.58466 42.7354 3.6862 42.5099 3.65074C42.4308 3.6384 42.3481 3.64871 42.2665 3.64871C42.2918 3.3811 43.7128 0.319941 43.9566 0C44.5025 1.20384 45.0464 2.40269 45.6033 3.63105ZM0 0.159033C0.647629 0.159033 1.26447 0.159033 1.90362 0.159033C1.90362 0.32733 1.90362 0.4861 1.90362 0.674878C1.46899 0.674878 1.0298 0.674878 0.560137 0.674878C0.560137 0.952726 0.560137 1.20279 0.560137 1.48762C0.982517 1.48762 1.40867 1.48762 1.84942 1.48762C1.84942 1.68021 1.84942 1.83898 1.84942 2.02046C1.41903 2.02046 1.00137 2.02046 0.556997 2.02046C0.556997 2.38897 0.556997 2.73635 0.556997 3.12423C0.994928 3.12423 1.44291 3.12423 1.90676 3.12423C1.90676 3.32269 1.90676 3.48131 1.90676 3.6577C1.26745 3.6577 0.642916 3.6577 0 3.6577C0 2.49169 0 1.34044 0 0.159033ZM13.9829 3.10562C13.9829 3.311 13.9829 3.46104 13.9829 3.6577C13.6632 3.6577 13.3515 3.6577 13.0396 3.6577C12.7254 3.6577 12.411 3.6577 12.0761 3.6577C12.0761 2.4817 12.0761 1.33139 12.0761 0.159033C12.7044 0.159033 13.3305 0.159033 13.9755 0.159033C13.9755 0.320962 13.9755 0.480191 13.9755 0.666543C13.532 0.666543 13.0911 0.666543 12.6045 0.666543C12.6045 0.900951 12.6064 1.10967 12.604 1.31822C12.6021 1.4819 12.6775 1.55025 12.8404 1.54755C13.1912 1.542 13.5421 1.54597 13.9171 1.54597C13.9171 1.69156 13.9171 1.82637 13.9171 1.9967C13.5004 1.9967 13.0733 1.9967 12.6248 1.9967C12.6248 2.37924 12.6248 2.72768 12.6248 3.10562C13.0684 3.10562 13.5087 3.10562 13.9829 3.10562Z" fill="var(--fill-0, #B84159)"/>
</svg>
