<svg preserveAspectRatio="none" width="100%" height="100%" overflow="visible" style="display: block;" viewBox="0 0 103.601 15.903" fill="none" xmlns="http://www.w3.org/2000/svg">
<path id="Vector" fill-rule="evenodd" clip-rule="evenodd" d="M25.2646 11.9273C26.0732 12.779 26.8606 13.6082 27.7071 14.4999C27.7071 13.6761 27.7071 12.9397 27.7071 12.1792C27.9176 12.1792 28.0954 12.1792 28.2836 12.1792C28.2836 13.3977 28.2836 14.6068 28.2836 15.903C27.4375 15.0122 26.6443 14.1772 25.851 13.3423C25.8303 13.3518 25.8097 13.3614 25.789 13.3707C25.789 14.1311 25.789 14.8915 25.789 15.6662C25.5983 15.6662 25.4407 15.6662 25.2646 15.6662C25.2646 14.4265 25.2646 13.2019 25.2646 11.9273ZM66.9687 14.405C66.9687 13.6576 66.9687 12.9101 66.9687 12.1474C67.1695 12.1474 67.3402 12.1474 67.531 12.1474C67.531 13.3772 67.531 14.5995 67.531 15.903C66.6788 15.0288 65.917 14.1538 65.0455 13.2893C65.0455 14.1197 65.0455 14.8848 65.0455 15.6703C64.853 15.6703 64.6953 15.6703 64.512 15.6703C64.512 14.4352 64.512 13.1989 64.512 11.9273C65.3466 12.7286 66.0863 13.6085 66.9687 14.405ZM72.6157 12.1711C72.6157 13.3989 72.6157 14.6131 72.6157 15.903C71.7846 15.0202 71.0001 14.1874 70.1609 13.2963C70.1609 14.1316 70.1609 14.8902 70.1609 15.6713C69.969 15.6713 69.8118 15.6713 69.6065 15.6713C69.5915 14.4523 69.6061 13.2236 69.5967 11.9273C70.469 12.7493 71.1832 13.6564 72.0689 14.488C72.0689 13.6738 72.0689 12.9305 72.0689 12.1711C72.2678 12.1711 72.4362 12.1711 72.6157 12.1711ZM98.8337 15.744C98.0092 14.8761 97.2219 14.0474 96.3744 13.1553C96.3744 13.6229 96.3774 14.0086 96.3734 14.3942C96.3698 14.7688 96.3918 15.145 96.3568 15.5316C96.1605 15.5316 95.9999 15.5316 95.8146 15.5316C95.8146 14.2965 95.8146 13.0629 95.8146 11.7682C96.6501 12.6495 97.4529 13.4965 98.3047 14.395C98.3047 13.5659 98.3047 12.8052 98.3047 12.0301C98.4948 12.0301 98.6537 12.0301 98.8337 12.0301C98.8337 13.2493 98.8337 14.4613 98.8337 15.744ZM28.7514 6.16318C28.6962 6.17686 28.641 6.20218 28.5858 6.20218C27.9023 6.20077 27.2186 6.19636 26.5351 6.19007C26.5069 6.18976 26.4789 6.16208 26.3768 6.10783C26.4456 6.08487 26.4781 6.06836 26.5123 6.06349C26.9678 5.99855 26.9395 5.9803 27.0126 5.52145C27.0731 5.14327 27.0773 4.75456 27.0806 4.37024C27.0892 3.36464 27.0867 2.35857 27.0812 1.35281C27.0799 1.10876 27.0524 0.864715 27.033 0.621138C27.0082 0.310101 26.9667 0.269845 26.6268 0.198455C26.5804 0.188548 26.5348 0.171407 26.492 0.15128C26.4729 0.142316 26.4616 0.117628 26.4307 0.081304C26.6514 -0.0661946 26.8935 0.0358612 27.1173 0.0171487C27.344 -0.0018783 27.5738 0.0130584 27.8023 0.0132156C28.0397 0.0133728 28.2769 0.0132156 28.5167 0.0132156C28.5269 0.189491 28.4116 0.180371 28.325 0.197669C27.9821 0.267015 27.9551 0.28793 27.9318 0.625698C27.9099 0.939251 27.8921 1.25375 27.8903 1.56793C27.885 2.51519 27.8821 3.46277 27.8915 4.40987C27.8953 4.80598 27.9261 5.20224 27.9573 5.59741C27.9805 5.8913 28.0439 5.94539 28.3436 6.00436C28.4832 6.03188 28.6214 6.06711 28.7603 6.09887C28.7574 6.12026 28.7543 6.1418 28.7514 6.16318ZM54.8907 14.4228C54.8907 13.6808 54.8907 12.9387 54.8907 12.1778C55.082 12.1778 55.2386 12.1778 55.3928 12.1778C55.4612 12.4331 55.4807 15.3597 55.4123 15.903C54.6008 15.0373 53.8142 14.1982 53.0276 13.3592C53.0064 13.369 52.9852 13.3784 52.9639 13.3882C52.9639 14.1534 52.9639 14.9185 52.9639 15.6986C52.7726 15.6986 52.6155 15.6986 52.4359 15.6986C52.4359 14.4513 52.4359 13.2105 52.4359 11.9273C53.2386 12.7866 54.0203 13.6236 54.8022 14.4604C54.8316 14.4479 54.8612 14.4353 54.8907 14.4228ZM34.5574 12.6313C33.9554 12.5988 33.3087 13.1496 33.3025 13.9245C33.2965 14.6632 33.9939 15.2302 34.5807 15.2127C35.2845 15.1917 35.8313 14.6231 35.8297 13.9018C35.8283 13.152 35.208 12.5907 34.5574 12.6313ZM36.3799 13.9284C36.475 14.7756 35.6488 15.7672 34.5334 15.7436C33.6469 15.725 32.7333 15.0879 32.7327 13.9096C32.7319 12.83 33.6145 12.0955 34.5574 12.0864C35.5819 12.0767 36.3767 12.8813 36.3799 13.9284ZM22.955 13.9229C22.9562 13.1866 22.4134 12.6358 21.6981 12.631C21.0255 12.6263 20.431 13.0924 20.4261 13.9093C20.4212 14.7656 21.0956 15.2058 21.6851 15.2109C22.4463 15.2174 22.988 14.5345 22.955 13.9229ZM23.5149 13.9284C23.5459 14.8509 22.7659 15.7586 21.6623 15.7438C20.7378 15.7314 19.857 15.038 19.8621 13.9074C19.8668 12.806 20.7992 12.0745 21.7215 12.0864C22.6955 12.0987 23.5611 12.9491 23.5149 13.9284ZM0.562404 15.0532C1.15678 15.0928 1.66749 14.9979 1.97064 14.4685C2.22449 14.0254 2.21001 13.5549 1.92436 13.1339C1.60292 12.6601 1.1097 12.5925 0.562404 12.6512C0.562404 13.4559 0.562404 14.2388 0.562404 15.0532ZM0 15.5803C0 14.4197 0 13.2792 0 12.0971C0.541569 12.0983 1.08091 12.0333 1.6061 12.209C2.22083 12.4148 2.64168 12.9957 2.69305 13.6417C2.77019 14.6103 2.29336 15.168 1.63966 15.4534C1.47075 15.527 1.27638 15.565 1.09141 15.5749C0.740541 15.5938 0.387767 15.5803 0 15.5803ZM87.9547 13.5449C88.1894 13.5805 88.401 13.6017 88.5521 13.3851C88.6485 13.247 88.6616 12.963 88.5667 12.8244C88.4197 12.6096 88.2012 12.5883 87.9547 12.5979C87.9547 12.9226 87.9547 13.2292 87.9547 13.5449ZM87.9554 15.0344C88.1499 15.0344 88.3121 15.049 88.4707 15.0311C88.7182 15.0034 88.8969 14.8001 88.9036 14.5678C88.9112 14.3016 88.7518 14.097 88.481 14.0625C88.3139 14.0411 88.1423 14.0586 87.9554 14.0586C87.9554 14.3873 87.9554 14.6969 87.9554 15.0344ZM87.4661 15.5825C87.3908 15.3127 87.3665 12.8381 87.428 12.1113C87.7636 12.0878 88.101 12.0564 88.4381 12.1466C89.0704 12.3152 89.3407 12.9763 89.0092 13.5449C88.9864 13.5836 88.9662 13.6239 88.9407 13.6709C89.0145 13.7373 89.082 13.7993 89.1509 13.86C89.4568 14.1297 89.512 14.4833 89.4155 14.8495C89.3196 15.2136 89.0561 15.4423 88.6909 15.5239C88.5241 15.5614 88.35 15.5738 88.1786 15.5803C87.9388 15.5894 87.6982 15.5825 87.4661 15.5825ZM103.601 15.5833C103.337 15.5833 103.158 15.5783 102.979 15.5847C102.788 15.5918 102.708 15.4488 102.611 15.3352C102.274 14.9384 101.944 14.5363 101.611 14.137C101.59 14.1124 101.562 14.0943 101.517 14.0569C101.383 14.3129 101.457 14.572 101.445 14.8199C101.433 15.0626 101.442 15.3061 101.442 15.5652C101.247 15.5652 101.084 15.5652 100.899 15.5652C100.899 14.4161 100.899 13.2758 100.899 12.1136C101.065 12.1136 101.228 12.1136 101.424 12.1136C101.424 12.5303 101.424 12.9579 101.424 13.4483C101.549 13.3397 101.63 13.2788 101.7 13.2077C102 12.9037 102.3 12.6001 102.593 12.2896C102.723 12.1516 102.858 12.0655 103.063 12.0907C103.212 12.1089 103.366 12.0943 103.599 12.0943C103.026 12.653 102.51 13.1563 101.975 13.6779C102.501 14.2946 103.02 14.9032 103.601 15.5833Z" fill="var(--fill-0, #B84159)"/>
</svg>
