<svg preserveAspectRatio="none" width="100%" height="100%" overflow="visible" style="display: block;" viewBox="0 0 56.4083 7.63346" fill="none" xmlns="http://www.w3.org/2000/svg">
<path id="Vector" fill-rule="evenodd" clip-rule="evenodd" d="M48.856 3.02177C48.8359 2.9379 48.8028 2.85499 48.7979 2.77032C48.7697 2.27794 48.5074 1.95218 48.0674 1.7714C47.2243 1.42511 46.358 1.40251 45.5007 1.69135C44.907 1.89139 44.4857 2.33412 44.2995 2.91928C43.9649 3.96977 44.0162 5.00276 44.6926 5.92833C45.3156 6.781 46.1681 7.19986 47.2267 7.17329C47.4855 7.16692 47.747 7.13844 48.0008 7.08751C48.4598 6.99553 48.7533 6.71719 48.8588 6.25122C48.8833 6.14396 48.9284 6.04131 48.9637 5.9366C48.9884 5.93851 49.0131 5.94026 49.0376 5.94233C49.059 5.99914 49.1065 6.05978 49.098 6.11181C49.045 6.43774 48.9707 6.76047 48.9214 7.08703C48.8879 7.30776 48.756 7.42696 48.5601 7.47343C48.3084 7.53327 48.0525 7.59262 47.7957 7.60949C46.9778 7.66312 46.1667 7.64387 45.3766 7.37158C44.0101 6.90068 43.2579 5.8061 43.2211 4.39643C43.1944 3.37395 43.5868 2.52955 44.3498 1.86036C44.8082 1.45821 45.3685 1.27328 45.9614 1.17907C46.67 1.06656 47.3749 1.10841 48.0791 1.22761C48.3466 1.27297 48.6178 1.29779 48.8881 1.32485C49.0075 1.33662 49.0896 1.35524 49.0783 1.51041C49.05 1.89903 49.0382 2.28876 49.0145 2.67771C49.0075 2.79117 48.9822 2.90337 48.9651 3.0162C48.9289 3.01811 48.8924 3.01986 48.856 3.02177ZM0 0.175735C0.109488 -0.0246703 0.252688 0.0320402 0.371314 0.0331616C1.32016 0.0418122 2.26885 0.0618362 3.21785 0.0664819C3.49732 0.0676033 3.77711 0.0304378 4.05674 0.0113745C4.12243 0.0070492 4.18844 0.00480589 4.29021 0C4.18576 0.445345 4.23003 0.88188 4.03421 1.2939C4.01058 1.23415 3.97655 1.17632 3.96505 1.11448C3.88975 0.712073 3.73426 0.526085 3.35129 0.507822C2.81503 0.481871 2.27673 0.501255 1.71747 0.501255C1.71747 1.43376 1.71747 2.35632 1.71747 3.29795C2.31705 3.29795 2.90136 3.31478 3.48362 3.28722C3.65013 3.27921 3.81082 3.14225 3.99388 3.05478C4.08462 3.29235 3.94 3.53873 3.9389 3.7896C3.93764 4.03438 3.98143 4.29165 3.85714 4.53082C3.70811 4.49125 3.75395 4.36486 3.73174 4.27259C3.64683 3.92048 3.55136 3.76957 3.13325 3.73321C2.6701 3.69284 2.20079 3.72408 1.71085 3.72408C1.70597 3.83637 1.69715 3.92817 1.69841 4.0198C1.71006 4.82959 1.72204 5.63938 1.73716 6.44901C1.74 6.5919 1.74661 6.73656 1.77213 6.87641C1.81451 7.1095 1.93566 7.21331 2.1748 7.25031C2.30209 7.27001 2.42954 7.28828 2.55635 7.31134C2.57384 7.31455 2.58723 7.34194 2.63528 7.39224C2.54265 7.42428 2.46498 7.47474 2.38732 7.47442C1.74362 7.47154 1.10008 7.46001 0.456384 7.44943C0.365958 7.44783 0.275532 7.4371 0.170928 7.42989C0.203065 7.24871 0.346108 7.29629 0.427397 7.26937C0.705135 7.17742 0.768624 7.1268 0.792097 6.83076C0.822344 6.45141 0.854482 6.07079 0.855742 5.69064C0.860468 4.1039 0.854637 2.51732 0.849439 0.93042C0.848966 0.813157 0.826913 0.695091 0.806748 0.579109C0.774138 0.39216 0.659921 0.290436 0.475603 0.262241C0.327046 0.239493 0.17975 0.208735 0 0.175735ZM26.4787 2.55464C26.4578 2.5529 26.437 2.55132 26.4161 2.54974C26.1746 3.27164 25.9329 3.99353 25.6805 4.74715C26.2241 4.74715 26.7132 4.74715 27.257 4.74715C26.9901 3.99511 26.7345 3.2748 26.4787 2.55464ZM27.3983 5.12735C26.7647 5.12735 26.1768 5.12735 25.5542 5.12735C25.4694 5.3521 25.3788 5.57747 25.2991 5.80679C25.1842 6.13838 25.0693 6.47029 24.9688 6.80646C24.8832 7.09228 24.9083 7.30645 25.3212 7.3145C25.3527 7.31513 25.3837 7.33881 25.4522 7.36721C25.2198 7.52757 24.9881 7.4335 24.7741 7.44708C24.5392 7.46191 24.3008 7.47233 24.0677 7.4485C23.8494 7.42624 23.6122 7.56545 23.3578 7.36169C23.5021 7.33123 23.5977 7.30424 23.6953 7.29162C24.0031 7.25153 24.2147 7.09433 24.3287 6.80378C24.4869 6.40116 24.6555 6.00265 24.8097 5.59862C25.3395 4.21086 25.8644 2.8212 26.3942 1.43328C26.4348 1.32707 26.4975 1.22906 26.5572 1.11321C26.7167 1.17413 26.752 1.29376 26.7997 1.41308C27.1675 2.33573 27.5387 3.25712 27.911 4.17819C28.2179 4.9378 28.5255 5.69695 28.838 6.45404C28.8912 6.58298 28.9655 6.70466 29.0395 6.82382C29.2082 7.09544 29.4356 7.28278 29.7707 7.31055C29.8339 7.31576 29.8957 7.33786 30.0314 7.36895C29.9173 7.42561 29.8707 7.46917 29.8246 7.4687C29.2517 7.46302 28.6788 7.45071 28.0457 7.43903C28.2071 7.24332 28.1766 7.08976 28.1005 6.90952C27.8552 6.32872 27.636 5.73703 27.3983 5.12735ZM52.7516 7.35856C52.7586 7.33827 52.7596 7.32038 52.7661 7.31798C53.2442 7.14642 53.3068 7.07629 53.3102 6.55698C53.3198 5.03498 53.3191 3.51282 53.3218 1.9905C53.322 1.91942 53.3162 1.84818 53.3107 1.77693C53.2881 1.48668 53.1907 1.38094 52.9143 1.33142C52.8108 1.31305 52.6798 1.35634 52.5948 1.17232C52.7132 1.16177 52.8091 1.14564 52.9047 1.1458C53.7297 1.14724 54.5547 1.15506 55.3796 1.15299C55.6431 1.15235 55.9066 1.12823 56.2003 1.11321C56.1585 1.48365 56.1145 1.8715 56.069 2.2734C55.923 2.25104 55.9279 2.1496 55.9111 2.06111C55.839 1.68476 55.7822 1.60202 55.4246 1.57774C55.0114 1.54978 54.595 1.57119 54.1622 1.57119C54.1622 2.33874 54.1622 3.09351 54.1622 3.85275C54.6755 3.85275 55.1717 3.86521 55.6665 3.84396C55.7856 3.83885 55.9 3.7224 56.067 3.62895C56.047 3.87335 56.0319 4.08645 56.0116 4.29922C55.9907 4.51775 55.9648 4.73563 55.9412 4.95367C55.9161 4.95591 55.8908 4.95799 55.8657 4.96022C55.8418 4.86741 55.811 4.77588 55.7954 4.68164C55.7594 4.46551 55.6451 4.34267 55.4264 4.32542C55.3002 4.31551 55.1744 4.28788 55.0479 4.28532C54.76 4.27893 54.4715 4.28325 54.1612 4.28325C54.1553 4.39091 54.1459 4.48196 54.1456 4.57302C54.1439 5.12012 54.1444 5.66707 54.1442 6.21418C54.1442 6.26178 54.1381 6.31034 54.1458 6.35667C54.2079 6.74004 54.1721 7.02582 54.757 7.02773C55.079 7.02885 55.4019 7.02901 55.7228 7.00553C55.9695 6.98748 56.1096 6.81832 56.1749 6.5803C56.2078 6.46018 56.2451 6.34133 56.2988 6.15987C56.3601 6.2661 56.4121 6.31386 56.4081 6.35619C56.3836 6.62758 56.358 6.89962 56.3107 7.16735C56.2657 7.42117 56.2136 7.46894 55.9642 7.47277C55.5462 7.47916 55.1279 7.46542 54.7097 7.45951C54.1305 7.45152 53.5509 7.43763 52.9715 7.4397C52.8746 7.44002 52.7963 7.45919 52.7516 7.35856Z" fill="var(--fill-0, #B84159)"/>
</svg>
