<svg preserveAspectRatio="none" width="100%" height="100%" overflow="visible" style="display: block;" viewBox="0 0 26.059 6.67927" fill="none" xmlns="http://www.w3.org/2000/svg">
<path id="Vector" fill-rule="evenodd" clip-rule="evenodd" d="M19.0676 6.47483C19.1499 6.45859 19.2323 6.44171 19.3146 6.42627C19.6117 6.37022 19.6999 6.28917 19.737 5.9919C19.759 5.81628 19.7572 5.63699 19.7574 5.45929C19.7585 3.85861 19.7577 2.25777 19.7583 0.656926C19.7585 0.494836 19.7312 0.324306 19.9042 0.159031C21.5611 1.84522 23.2152 3.52838 24.9255 5.26902C24.9255 4.81635 24.9327 4.44472 24.9241 4.07356C24.905 3.24528 24.8807 2.41715 24.8529 1.58903C24.845 1.35321 24.8262 1.11708 24.7965 0.883025C24.763 0.617916 24.6766 0.54324 24.411 0.505186C24.2783 0.486079 24.146 0.463467 24.0156 0.40949C24.2249 0.234184 24.4621 0.331311 24.6831 0.315867C24.9068 0.300103 25.1322 0.31316 25.3569 0.314434C25.5848 0.315707 25.8128 0.317618 26.059 0.319529C26.003 0.503592 25.8903 0.498178 25.7879 0.502637C25.5734 0.511394 25.4687 0.625877 25.4542 0.834939C25.4453 0.964229 25.4258 1.09336 25.4255 1.22233C25.4209 2.84674 25.4198 4.47131 25.4148 6.09587C25.4144 6.2793 25.4399 6.47101 25.3159 6.67927C25.2018 6.59902 25.0984 6.54505 25.0182 6.46703C24.0098 5.48397 22.9999 4.50283 22.0013 3.50975C21.5149 3.02603 21.0523 2.51826 20.5771 2.02291C20.4808 1.92276 20.3773 1.82977 20.2276 1.68568C20.247 2.09234 20.2667 2.43005 20.2781 2.76808C20.3107 3.71451 20.3399 4.6611 20.3703 5.60753C20.3711 5.63126 20.3723 5.65498 20.3733 5.67855C20.4024 6.28949 20.4607 6.3527 21.0645 6.43327C21.1069 6.43884 21.1476 6.4562 21.2367 6.48168C20.9771 6.6788 20.7303 6.54664 20.5029 6.56543C20.268 6.58485 20.0287 6.5866 19.7942 6.56559C19.555 6.54409 19.3075 6.66271 19.0676 6.47483ZM2.11441 6.35224C2.06171 6.37469 2.00853 6.41783 1.95599 6.41704C1.30661 6.40677 0.65723 6.39017 0 6.375C0.0278718 6.20558 0.148326 6.26437 0.228257 6.24667C0.534366 6.17855 0.62503 6.08468 0.644893 5.7678C0.662673 5.48601 0.670363 5.20342 0.670684 4.92132C0.673246 3.43792 0.670843 1.95468 0.673887 0.471287C0.674207 0.335843 0.701439 0.200399 0.723384 0C0.857777 0.100832 0.947318 0.152987 1.01796 0.223474C1.68128 0.883622 2.34139 1.54709 3.00262 2.20945C3.87946 3.08801 4.75614 3.96642 5.63378 4.84419C5.69898 4.90946 5.77154 4.96778 5.86493 5.05075C5.86493 4.52431 5.87277 4.03327 5.863 3.54255C5.85051 2.93218 5.82648 2.32197 5.80166 1.71209C5.78836 1.38414 5.77827 1.05494 5.73774 0.729846C5.70458 0.462437 5.61904 0.410439 5.34257 0.367925C5.21202 0.347853 5.052 0.410438 4.93411 0.220786C5.16509 0.136865 5.38854 0.189021 5.60335 0.181277C5.84138 0.172584 6.08005 0.180487 6.31856 0.180803C6.54202 0.181119 6.76531 0.180959 6.99101 0.180959C6.99934 0.356072 6.88657 0.349277 6.8004 0.366345C6.45552 0.434304 6.45216 0.432566 6.40763 0.784529C6.38712 0.947156 6.37094 1.11136 6.37046 1.27478C6.36582 2.88746 6.36533 4.50013 6.36165 6.11296C6.36133 6.22423 6.34371 6.33549 6.32786 6.52024C6.15518 6.40724 6.03007 6.34687 5.9322 6.25742C5.50371 5.86658 5.07587 5.47463 4.66164 5.0694C3.91631 4.34035 3.17834 3.60371 2.44214 2.8658C2.06587 2.48903 1.70034 2.10166 1.32872 1.7203C1.28194 1.67242 1.22812 1.63117 1.1461 1.5591C1.16324 2.04793 1.17926 2.49124 1.19432 2.93471C1.22347 3.79225 1.25199 4.6498 1.28082 5.50734C1.28114 5.51904 1.28226 5.53089 1.28274 5.54259C1.31109 6.10111 1.39183 6.18709 1.9443 6.24999C1.99892 6.25615 2.05258 6.27069 2.10672 6.28144C2.10928 6.30499 2.11201 6.32854 2.11441 6.35224Z" fill="var(--fill-0, #B84159)"/>
</svg>
