<svg preserveAspectRatio="none" width="100%" height="100%" overflow="visible" style="display: block;" viewBox="0 0 78.8127 3.6577" fill="none" xmlns="http://www.w3.org/2000/svg">
<path id="Vector" fill-rule="evenodd" clip-rule="evenodd" d="M42.2665 3.39748C41.5609 3.8401 40.5589 3.72379 39.9631 3.00457C39.4554 2.39195 39.4235 1.38099 39.9257 0.736341C40.5065 -0.00932687 41.4413 -0.213909 42.2389 0.238909C42.2389 0.401267 42.2389 0.568727 42.2389 0.76072C42.1687 0.829392 42.0924 0.789715 41.9927 0.730603C41.6795 0.544824 41.3436 0.488902 40.9902 0.604417C40.4663 0.775538 40.1932 1.17084 40.1287 1.69774C40.0669 2.20155 40.2511 2.6378 40.6778 2.91886C41.1148 3.20677 41.5742 3.20597 42.0217 2.92013C42.0991 2.87058 42.1692 2.80923 42.2665 2.73514C42.2665 2.96235 42.2665 3.16629 42.2665 3.39748ZM34.2633 1.33107C34.657 1.33107 35.0224 1.33107 35.4021 1.33107C35.4021 1.50031 35.4021 1.64894 35.4021 1.83894C35.0204 1.83894 34.6471 1.83894 34.2445 1.83894C34.2445 2.4048 34.2445 2.93074 34.2445 3.47695C34.1254 3.48519 34.0344 3.49375 33.9434 3.49707C33.8634 3.50024 33.7833 3.49771 33.6861 3.49771C33.6861 2.31686 33.6861 1.16818 33.6861 2.64066e-06C34.2672 2.64066e-06 34.8419 2.64066e-06 35.4339 2.64066e-06C35.4339 0.170348 35.4339 0.328965 35.4339 0.511829C35.0432 0.511829 34.6663 0.511829 34.2633 0.511829C34.2633 0.794364 34.2633 1.05266 34.2633 1.33107ZM54.033 3.49867C53.8282 3.49867 53.6622 3.49867 53.4575 3.49867C53.4575 2.51589 53.4575 1.5387 53.4575 0.530427C53.1697 0.530427 52.9182 0.530427 52.6253 0.530427C52.6145 0.343369 52.6054 0.18499 52.5948 2.64066e-06C53.3461 2.64066e-06 54.0718 2.64066e-06 54.8193 2.64066e-06C54.8193 0.159496 54.8193 0.31931 54.8193 0.516248C54.5711 0.516248 54.3206 0.516248 54.033 0.516248C54.033 1.5293 54.033 2.50665 54.033 3.49867ZM77.2237 2.64066e-06C77.4266 2.64066e-06 77.5941 2.64066e-06 77.7968 2.64066e-06C77.7968 0.982731 77.7968 1.95831 77.7968 2.96678C78.1511 2.96678 78.4715 2.96678 78.8127 2.96678C78.8127 3.15859 78.8127 3.31751 78.8127 3.49867C78.2876 3.49867 77.765 3.49867 77.2237 3.49867C77.2237 2.33541 77.2237 1.18249 77.2237 2.64066e-06ZM6.67366 2.64066e-06C6.84568 2.64066e-06 6.9872 2.64066e-06 7.15035 2.64066e-06C7.15035 1.16185 7.15035 2.31597 7.15035 3.49819C7.04065 3.49819 6.94398 3.49961 6.84731 3.49756C6.7946 3.49645 6.7419 3.48982 6.67366 3.48445C6.67366 2.32165 6.67366 1.17623 6.67366 2.64066e-06ZM70.709 2.64066e-06C70.709 1.1691 70.709 2.32336 70.709 3.49867C70.517 3.49867 70.3351 3.49867 70.1496 3.49867C70.0707 3.26488 70.0421 0.64475 70.1169 2.64066e-06C70.3061 2.64066e-06 70.4981 2.64066e-06 70.709 2.64066e-06ZM0 2.64066e-06C0.171827 2.64066e-06 0.312827 2.64066e-06 0.476689 2.64066e-06C0.476689 1.15251 0.476689 2.29728 0.476689 3.46083C0.333034 3.52441 0.175071 3.48986 0 3.48449C0 2.31968 0 1.17523 0 2.64066e-06ZM13.0295 2.64066e-06C13.1931 2.64066e-06 13.3246 2.64066e-06 13.4538 2.64066e-06C13.5175 0.27316 13.5266 3.11696 13.4618 3.49809C13.3917 3.49809 13.3158 3.49967 13.2401 3.49761C13.1752 3.49572 13.1105 3.48987 13.0295 3.48481C13.0295 2.32057 13.0295 1.1761 13.0295 2.64066e-06Z" fill="var(--fill-0, #B84159)"/>
</svg>
